<mxfile host="Electron" agent="Mozilla/5.0 (X11; Linux x86_64) AppleWebKit/537.36 (KHTML, like Gecko) draw.io/24.7.17 Chrome/128.0.6613.36 Electron/32.0.1 Safari/537.36" version="24.7.17">
  <diagram name="Page-1" id="42CvASub1HwD-BygPTsV">
    <mxGraphModel dx="1368" dy="835" grid="1" gridSize="10" guides="1" tooltips="1" connect="1" arrows="1" fold="1" page="1" pageScale="1" pageWidth="850" pageHeight="1100" math="0" shadow="0">
      <root>
        <mxCell id="0" />
        <mxCell id="1" parent="0" />
        <mxCell id="kB5Wtqeiwu8v_5wdKeYX-100" value="" style="edgeStyle=orthogonalEdgeStyle;rounded=0;orthogonalLoop=1;jettySize=auto;html=1;exitX=1;exitY=0.5;exitDx=0;exitDy=0;" edge="1" parent="1" source="kB5Wtqeiwu8v_5wdKeYX-57" target="kB5Wtqeiwu8v_5wdKeYX-99">
          <mxGeometry relative="1" as="geometry">
            <Array as="points" />
          </mxGeometry>
        </mxCell>
        <mxCell id="kB5Wtqeiwu8v_5wdKeYX-28" value="Упражнение 3" style="shape=table;startSize=40;container=1;collapsible=0;childLayout=tableLayout;fontSize=16;fontStyle=1;perimeterSpacing=10;" vertex="1" parent="1">
          <mxGeometry x="40" y="40" width="750" height="890" as="geometry" />
        </mxCell>
        <mxCell id="kB5Wtqeiwu8v_5wdKeYX-29" value="" style="shape=tableRow;horizontal=0;startSize=0;swimlaneHead=0;swimlaneBody=0;strokeColor=inherit;top=0;left=0;bottom=0;right=0;collapsible=0;dropTarget=0;fillColor=none;points=[[0,0.5],[1,0.5]];portConstraint=eastwest;" vertex="1" parent="kB5Wtqeiwu8v_5wdKeYX-28">
          <mxGeometry y="40" width="750" height="40" as="geometry" />
        </mxCell>
        <mxCell id="kB5Wtqeiwu8v_5wdKeYX-30" value="&lt;font style=&quot;font-size: 14px;&quot;&gt;&lt;b&gt;Заголовок&lt;/b&gt;&lt;/font&gt;" style="shape=partialRectangle;html=1;whiteSpace=wrap;connectable=0;strokeColor=inherit;overflow=hidden;fillColor=none;top=0;left=0;bottom=0;right=0;pointerEvents=1;" vertex="1" parent="kB5Wtqeiwu8v_5wdKeYX-29">
          <mxGeometry width="240" height="40" as="geometry">
            <mxRectangle width="240" height="40" as="alternateBounds" />
          </mxGeometry>
        </mxCell>
        <mxCell id="kB5Wtqeiwu8v_5wdKeYX-31" value="&lt;font style=&quot;font-size: 14px;&quot;&gt;Установка категорий кэшбэка на следующий месяц&lt;/font&gt;" style="shape=partialRectangle;html=1;whiteSpace=wrap;connectable=0;strokeColor=inherit;overflow=hidden;fillColor=none;top=0;left=0;bottom=0;right=0;pointerEvents=1;" vertex="1" parent="kB5Wtqeiwu8v_5wdKeYX-29">
          <mxGeometry x="240" width="510" height="40" as="geometry">
            <mxRectangle width="510" height="40" as="alternateBounds" />
          </mxGeometry>
        </mxCell>
        <mxCell id="kB5Wtqeiwu8v_5wdKeYX-33" value="" style="shape=tableRow;horizontal=0;startSize=0;swimlaneHead=0;swimlaneBody=0;strokeColor=inherit;top=0;left=0;bottom=0;right=0;collapsible=0;dropTarget=0;fillColor=none;points=[[0,0.5],[1,0.5]];portConstraint=eastwest;" vertex="1" parent="kB5Wtqeiwu8v_5wdKeYX-28">
          <mxGeometry y="80" width="750" height="40" as="geometry" />
        </mxCell>
        <mxCell id="kB5Wtqeiwu8v_5wdKeYX-34" value="&lt;font style=&quot;font-size: 14px;&quot;&gt;&lt;b&gt;Код&lt;/b&gt;&lt;/font&gt;" style="shape=partialRectangle;html=1;whiteSpace=wrap;connectable=0;strokeColor=inherit;overflow=hidden;fillColor=none;top=0;left=0;bottom=0;right=0;pointerEvents=1;" vertex="1" parent="kB5Wtqeiwu8v_5wdKeYX-33">
          <mxGeometry width="240" height="40" as="geometry">
            <mxRectangle width="240" height="40" as="alternateBounds" />
          </mxGeometry>
        </mxCell>
        <mxCell id="kB5Wtqeiwu8v_5wdKeYX-35" value="&lt;span style=&quot;text-wrap: nowrap;&quot;&gt;&lt;font style=&quot;font-size: 14px;&quot;&gt;UC1_US1_OBS_CB1&lt;/font&gt;&lt;/span&gt;" style="shape=partialRectangle;html=1;whiteSpace=wrap;connectable=0;strokeColor=inherit;overflow=hidden;fillColor=none;top=0;left=0;bottom=0;right=0;pointerEvents=1;" vertex="1" parent="kB5Wtqeiwu8v_5wdKeYX-33">
          <mxGeometry x="240" width="510" height="40" as="geometry">
            <mxRectangle width="510" height="40" as="alternateBounds" />
          </mxGeometry>
        </mxCell>
        <mxCell id="kB5Wtqeiwu8v_5wdKeYX-37" value="" style="shape=tableRow;horizontal=0;startSize=0;swimlaneHead=0;swimlaneBody=0;strokeColor=inherit;top=0;left=0;bottom=0;right=0;collapsible=0;dropTarget=0;fillColor=none;points=[[0,0.5],[1,0.5]];portConstraint=eastwest;" vertex="1" parent="kB5Wtqeiwu8v_5wdKeYX-28">
          <mxGeometry y="120" width="750" height="40" as="geometry" />
        </mxCell>
        <mxCell id="kB5Wtqeiwu8v_5wdKeYX-38" value="&lt;font style=&quot;font-size: 14px;&quot;&gt;&lt;b&gt;Система&lt;/b&gt;&lt;/font&gt;" style="shape=partialRectangle;html=1;whiteSpace=wrap;connectable=0;strokeColor=inherit;overflow=hidden;fillColor=none;top=0;left=0;bottom=0;right=0;pointerEvents=1;" vertex="1" parent="kB5Wtqeiwu8v_5wdKeYX-37">
          <mxGeometry width="240" height="40" as="geometry">
            <mxRectangle width="240" height="40" as="alternateBounds" />
          </mxGeometry>
        </mxCell>
        <mxCell id="kB5Wtqeiwu8v_5wdKeYX-39" value="&lt;font style=&quot;font-size: 14px;&quot;&gt;Мобильное приложение &quot;Озон&quot;, Сервис &quot;Озон Банк&quot;&lt;/font&gt;" style="shape=partialRectangle;html=1;whiteSpace=wrap;connectable=0;strokeColor=inherit;overflow=hidden;fillColor=none;top=0;left=0;bottom=0;right=0;pointerEvents=1;" vertex="1" parent="kB5Wtqeiwu8v_5wdKeYX-37">
          <mxGeometry x="240" width="510" height="40" as="geometry">
            <mxRectangle width="510" height="40" as="alternateBounds" />
          </mxGeometry>
        </mxCell>
        <mxCell id="kB5Wtqeiwu8v_5wdKeYX-41" value="" style="shape=tableRow;horizontal=0;startSize=0;swimlaneHead=0;swimlaneBody=0;strokeColor=inherit;top=0;left=0;bottom=0;right=0;collapsible=0;dropTarget=0;fillColor=none;points=[[0,0.5],[1,0.5]];portConstraint=eastwest;" vertex="1" parent="kB5Wtqeiwu8v_5wdKeYX-28">
          <mxGeometry y="160" width="750" height="40" as="geometry" />
        </mxCell>
        <mxCell id="kB5Wtqeiwu8v_5wdKeYX-42" value="&lt;font style=&quot;font-size: 14px;&quot;&gt;&lt;b&gt;Действующие лица (акторы)&lt;/b&gt;&lt;/font&gt;" style="shape=partialRectangle;html=1;whiteSpace=wrap;connectable=0;strokeColor=inherit;overflow=hidden;fillColor=none;top=0;left=0;bottom=0;right=0;pointerEvents=1;" vertex="1" parent="kB5Wtqeiwu8v_5wdKeYX-41">
          <mxGeometry width="240" height="40" as="geometry">
            <mxRectangle width="240" height="40" as="alternateBounds" />
          </mxGeometry>
        </mxCell>
        <mxCell id="kB5Wtqeiwu8v_5wdKeYX-43" value="&lt;font style=&quot;font-size: 14px;&quot;&gt;Клиент\Пользователь сервиса &quot;Озон Банк&quot;&lt;/font&gt;" style="shape=partialRectangle;html=1;whiteSpace=wrap;connectable=0;strokeColor=inherit;overflow=hidden;fillColor=none;top=0;left=0;bottom=0;right=0;pointerEvents=1;" vertex="1" parent="kB5Wtqeiwu8v_5wdKeYX-41">
          <mxGeometry x="240" width="510" height="40" as="geometry">
            <mxRectangle width="510" height="40" as="alternateBounds" />
          </mxGeometry>
        </mxCell>
        <mxCell id="kB5Wtqeiwu8v_5wdKeYX-49" value="" style="shape=tableRow;horizontal=0;startSize=0;swimlaneHead=0;swimlaneBody=0;strokeColor=inherit;top=0;left=0;bottom=0;right=0;collapsible=0;dropTarget=0;fillColor=none;points=[[0,0.5],[1,0.5]];portConstraint=eastwest;" vertex="1" parent="kB5Wtqeiwu8v_5wdKeYX-28">
          <mxGeometry y="200" width="750" height="90" as="geometry" />
        </mxCell>
        <mxCell id="kB5Wtqeiwu8v_5wdKeYX-50" value="&lt;font style=&quot;font-size: 14px;&quot;&gt;&lt;b&gt;Ограничения&lt;/b&gt;&lt;/font&gt;" style="shape=partialRectangle;html=1;whiteSpace=wrap;connectable=0;strokeColor=inherit;overflow=hidden;fillColor=none;top=0;left=0;bottom=0;right=0;pointerEvents=1;" vertex="1" parent="kB5Wtqeiwu8v_5wdKeYX-49">
          <mxGeometry width="240" height="90" as="geometry">
            <mxRectangle width="240" height="90" as="alternateBounds" />
          </mxGeometry>
        </mxCell>
        <mxCell id="kB5Wtqeiwu8v_5wdKeYX-51" value="&lt;span style=&quot;font-size: 14px; background-color: initial;&quot;&gt;Невозможность выбора категорий на следующий месяц в период с первого (включительно) и до 20го числа (исключительно) текущего месяца - область выбора кэшбэка недоступна и на ней есть плашка с отсчётом времени, необходимого для наступления 20го числа текущего месяца.&lt;/span&gt;" style="shape=partialRectangle;html=1;whiteSpace=wrap;connectable=0;strokeColor=inherit;overflow=hidden;fillColor=none;top=0;left=0;bottom=0;right=0;pointerEvents=1;align=left;" vertex="1" parent="kB5Wtqeiwu8v_5wdKeYX-49">
          <mxGeometry x="240" width="510" height="90" as="geometry">
            <mxRectangle width="510" height="90" as="alternateBounds" />
          </mxGeometry>
        </mxCell>
        <mxCell id="kB5Wtqeiwu8v_5wdKeYX-53" value="" style="shape=tableRow;horizontal=0;startSize=0;swimlaneHead=0;swimlaneBody=0;strokeColor=inherit;top=0;left=0;bottom=0;right=0;collapsible=0;dropTarget=0;fillColor=none;points=[[0,0.5],[1,0.5]];portConstraint=eastwest;" vertex="1" parent="kB5Wtqeiwu8v_5wdKeYX-28">
          <mxGeometry y="290" width="750" height="80" as="geometry" />
        </mxCell>
        <mxCell id="kB5Wtqeiwu8v_5wdKeYX-54" value="&lt;font style=&quot;font-size: 14px;&quot;&gt;&lt;b&gt;Предусловия&lt;/b&gt;&lt;/font&gt;" style="shape=partialRectangle;html=1;whiteSpace=wrap;connectable=0;strokeColor=inherit;overflow=hidden;fillColor=none;top=0;left=0;bottom=0;right=0;pointerEvents=1;" vertex="1" parent="kB5Wtqeiwu8v_5wdKeYX-53">
          <mxGeometry width="240" height="80" as="geometry">
            <mxRectangle width="240" height="80" as="alternateBounds" />
          </mxGeometry>
        </mxCell>
        <mxCell id="kB5Wtqeiwu8v_5wdKeYX-55" value="&lt;span style=&quot;font-size: 14px; background-color: initial;&quot;&gt;&lt;span style=&quot;white-space: pre;&quot;&gt;&#x9;&lt;/span&gt;1. Быть клиентом &quot;Озон Банка&quot; = иметь карту &quot;Озон&quot; банка т подтверждённый виртуальный счёт.&lt;/span&gt;&lt;br&gt;&lt;span style=&quot;font-size: 14px; background-color: initial;&quot;&gt;&lt;span style=&quot;white-space: pre;&quot;&gt;&#x9;&lt;/span&gt;2. Период с 20го числа (включительно) текущего месяца и до 1го числа (исключительно) следующего месяца&lt;/span&gt;" style="shape=partialRectangle;html=1;whiteSpace=wrap;connectable=0;strokeColor=inherit;overflow=hidden;fillColor=none;top=0;left=0;bottom=0;right=0;pointerEvents=1;align=left;" vertex="1" parent="kB5Wtqeiwu8v_5wdKeYX-53">
          <mxGeometry x="240" width="510" height="80" as="geometry">
            <mxRectangle width="510" height="80" as="alternateBounds" />
          </mxGeometry>
        </mxCell>
        <mxCell id="kB5Wtqeiwu8v_5wdKeYX-93" value="" style="shape=tableRow;horizontal=0;startSize=0;swimlaneHead=0;swimlaneBody=0;strokeColor=inherit;top=0;left=0;bottom=0;right=0;collapsible=0;dropTarget=0;fillColor=none;points=[[0,0.5],[1,0.5]];portConstraint=eastwest;" vertex="1" parent="kB5Wtqeiwu8v_5wdKeYX-28">
          <mxGeometry y="370" width="750" height="100" as="geometry" />
        </mxCell>
        <mxCell id="kB5Wtqeiwu8v_5wdKeYX-94" value="&lt;div&gt;&lt;span style=&quot;background-color: initial;&quot;&gt;&lt;font style=&quot;font-size: 14px;&quot;&gt;&lt;b&gt;Триггер&lt;/b&gt;&lt;/font&gt;&lt;/span&gt;&lt;br&gt;&lt;/div&gt;" style="shape=partialRectangle;html=1;whiteSpace=wrap;connectable=0;strokeColor=inherit;overflow=hidden;fillColor=none;top=0;left=0;bottom=0;right=0;pointerEvents=1;" vertex="1" parent="kB5Wtqeiwu8v_5wdKeYX-93">
          <mxGeometry width="240" height="100" as="geometry">
            <mxRectangle width="240" height="100" as="alternateBounds" />
          </mxGeometry>
        </mxCell>
        <mxCell id="kB5Wtqeiwu8v_5wdKeYX-95" value="&lt;div&gt;&lt;font style=&quot;font-size: 14px;&quot;&gt;&lt;span style=&quot;white-space: pre;&quot;&gt;&#x9;&lt;/span&gt;1. Наступило 20е число текущего месяца - область выбора кэшбэка на следующий месяц становится доступной для нажатия и в её верхнем правом углу отмечается кружок жёлтого цвета.&lt;/font&gt;&lt;/div&gt;&lt;div&gt;&lt;font style=&quot;font-size: 14px;&quot;&gt;&lt;span style=&quot;white-space: pre;&quot;&gt;&#x9;&lt;/span&gt;2. Пользователь нажал на область выбора кэшбэка&amp;nbsp;&lt;br&gt;&lt;/font&gt;&lt;/div&gt;" style="shape=partialRectangle;html=1;whiteSpace=wrap;connectable=0;strokeColor=inherit;overflow=hidden;fillColor=none;top=0;left=0;bottom=0;right=0;pointerEvents=1;align=left;" vertex="1" parent="kB5Wtqeiwu8v_5wdKeYX-93">
          <mxGeometry x="240" width="510" height="100" as="geometry">
            <mxRectangle width="510" height="100" as="alternateBounds" />
          </mxGeometry>
        </mxCell>
        <mxCell id="kB5Wtqeiwu8v_5wdKeYX-96" style="shape=tableRow;horizontal=0;startSize=0;swimlaneHead=0;swimlaneBody=0;strokeColor=inherit;top=0;left=0;bottom=0;right=0;collapsible=0;dropTarget=0;fillColor=none;points=[[0,0.5],[1,0.5]];portConstraint=eastwest;" vertex="1" parent="kB5Wtqeiwu8v_5wdKeYX-28">
          <mxGeometry y="470" width="750" height="80" as="geometry" />
        </mxCell>
        <mxCell id="kB5Wtqeiwu8v_5wdKeYX-97" value="&lt;font style=&quot;font-size: 14px;&quot;&gt;&lt;b&gt;Результат&lt;/b&gt;&lt;/font&gt;" style="shape=partialRectangle;html=1;whiteSpace=wrap;connectable=0;strokeColor=inherit;overflow=hidden;fillColor=none;top=0;left=0;bottom=0;right=0;pointerEvents=1;" vertex="1" parent="kB5Wtqeiwu8v_5wdKeYX-96">
          <mxGeometry width="240" height="80" as="geometry">
            <mxRectangle width="240" height="80" as="alternateBounds" />
          </mxGeometry>
        </mxCell>
        <mxCell id="kB5Wtqeiwu8v_5wdKeYX-98" value="&lt;span style=&quot;font-size: 14px; background-color: initial;&quot;&gt;&lt;span style=&quot;white-space: pre;&quot;&gt;&#x9;&lt;/span&gt;1. Категории кэшбэка выбраны в установленный период (см. Предусловия)&lt;/span&gt;&lt;br&gt;&lt;span style=&quot;font-size: 14px; background-color: initial;&quot;&gt;&lt;span style=&quot;white-space: pre;&quot;&gt;&#x9;&lt;/span&gt;2. Область выбора кэшбэка помечена зелёным кружком в верхнем правом углу&lt;/span&gt;" style="shape=partialRectangle;html=1;whiteSpace=wrap;connectable=0;strokeColor=inherit;overflow=hidden;fillColor=none;top=0;left=0;bottom=0;right=0;pointerEvents=1;align=left;" vertex="1" parent="kB5Wtqeiwu8v_5wdKeYX-96">
          <mxGeometry x="240" width="510" height="80" as="geometry">
            <mxRectangle width="510" height="80" as="alternateBounds" />
          </mxGeometry>
        </mxCell>
        <mxCell id="kB5Wtqeiwu8v_5wdKeYX-57" value="" style="shape=tableRow;horizontal=0;startSize=0;swimlaneHead=0;swimlaneBody=0;strokeColor=inherit;top=0;left=0;bottom=0;right=0;collapsible=0;dropTarget=0;fillColor=none;points=[[0,0.5],[1,0.5]];portConstraint=eastwest;" vertex="1" parent="kB5Wtqeiwu8v_5wdKeYX-28">
          <mxGeometry y="550" width="750" height="220" as="geometry" />
        </mxCell>
        <mxCell id="kB5Wtqeiwu8v_5wdKeYX-58" value="&lt;font style=&quot;font-size: 14px;&quot;&gt;&lt;b&gt;Основной сценарий&lt;/b&gt;&lt;/font&gt;" style="shape=partialRectangle;html=1;whiteSpace=wrap;connectable=0;strokeColor=inherit;overflow=hidden;fillColor=none;top=0;left=0;bottom=0;right=0;pointerEvents=1;" vertex="1" parent="kB5Wtqeiwu8v_5wdKeYX-57">
          <mxGeometry width="240" height="220" as="geometry">
            <mxRectangle width="240" height="220" as="alternateBounds" />
          </mxGeometry>
        </mxCell>
        <mxCell id="kB5Wtqeiwu8v_5wdKeYX-59" value="&lt;span style=&quot;font-size: 14px; background-color: initial;&quot;&gt;&lt;span style=&quot;white-space: pre;&quot;&gt;&#x9;&lt;/span&gt;0. Пользователь на главной странице раздела &quot;Бонусы&quot;.&lt;/span&gt;&lt;br&gt;&lt;span style=&quot;font-size: 14px; background-color: initial;&quot;&gt;&lt;span style=&quot;white-space: pre;&quot;&gt;&#x9;&lt;/span&gt;1. Пользователь нажимает на область выбора кэшбэка на следующий месяц.&lt;/span&gt;&lt;br&gt;&lt;span style=&quot;font-size: 14px; background-color: initial;&quot;&gt;&lt;span style=&quot;white-space: pre;&quot;&gt;&#x9;&lt;/span&gt;2. Система переводит его на экран выбора категорий кэшбэка.&lt;/span&gt;&lt;br&gt;&lt;span style=&quot;font-size: 14px; background-color: initial;&quot;&gt;&lt;span style=&quot;white-space: pre;&quot;&gt;&#x9;&lt;/span&gt;3. Пользователь отмечает ВСЕ доступные ему категории кэшбэка.&lt;/span&gt;&lt;br&gt;&lt;span style=&quot;font-size: 14px; background-color: initial;&quot;&gt;&lt;span style=&quot;white-space: pre;&quot;&gt;&#x9;&lt;/span&gt;4. Система помечает выбранные категории помечаются зелёным кружком с галочкой в правом конце для соответствующей категории и делает доступной кнопку &quot;Сохранить&quot; в нижнем правом углу.&lt;/span&gt;&lt;div&gt;&lt;span style=&quot;font-size: 14px;&quot;&gt;&lt;span style=&quot;white-space: pre;&quot;&gt;&#x9;&lt;/span&gt;5. Пользователь нажимает кнопку &quot;Сохранить&quot;.&lt;br&gt;&lt;/span&gt;&lt;span style=&quot;font-size: 14px; background-color: initial;&quot;&gt;&lt;span style=&quot;white-space: pre;&quot;&gt;&#x9;&lt;/span&gt;6. Система переводит его на главный экран раздела &quot;Бонусы&quot; и помечает область выбора кэшбэка на следующий месяц зелёным кружком (отметкой) в верхнем правом углу.&lt;/span&gt;&lt;/div&gt;" style="shape=partialRectangle;html=1;whiteSpace=wrap;connectable=0;strokeColor=inherit;overflow=hidden;fillColor=none;top=0;left=0;bottom=0;right=0;pointerEvents=1;align=left;" vertex="1" parent="kB5Wtqeiwu8v_5wdKeYX-57">
          <mxGeometry x="240" width="510" height="220" as="geometry">
            <mxRectangle width="510" height="220" as="alternateBounds" />
          </mxGeometry>
        </mxCell>
        <mxCell id="kB5Wtqeiwu8v_5wdKeYX-61" value="" style="shape=tableRow;horizontal=0;startSize=0;swimlaneHead=0;swimlaneBody=0;strokeColor=inherit;top=0;left=0;bottom=0;right=0;collapsible=0;dropTarget=0;fillColor=none;points=[[0,0.5],[1,0.5]];portConstraint=eastwest;" vertex="1" parent="kB5Wtqeiwu8v_5wdKeYX-28">
          <mxGeometry y="770" width="750" height="80" as="geometry" />
        </mxCell>
        <mxCell id="kB5Wtqeiwu8v_5wdKeYX-62" value="&lt;font style=&quot;font-size: 14px;&quot;&gt;&lt;b&gt;Альтернативные сценарии&lt;/b&gt;&lt;/font&gt;" style="shape=partialRectangle;html=1;whiteSpace=wrap;connectable=0;strokeColor=inherit;overflow=hidden;fillColor=none;top=0;left=0;bottom=0;right=0;pointerEvents=1;" vertex="1" parent="kB5Wtqeiwu8v_5wdKeYX-61">
          <mxGeometry width="240" height="80" as="geometry">
            <mxRectangle width="240" height="80" as="alternateBounds" />
          </mxGeometry>
        </mxCell>
        <mxCell id="kB5Wtqeiwu8v_5wdKeYX-63" value="&lt;div style=&quot;&quot;&gt;&lt;span style=&quot;background-color: initial; font-size: 14px;&quot;&gt;&lt;span style=&quot;white-space: pre;&quot;&gt;&#x9;&lt;/span&gt;5а. пользователь вышел из приложения не сохранив возможно выбранные категории.&lt;/span&gt;&lt;/div&gt;&lt;div style=&quot;&quot;&gt;&lt;span style=&quot;background-color: initial; font-size: 14px;&quot;&gt;&lt;span style=&quot;white-space: pre;&quot;&gt;&#x9;&lt;/span&gt;5b. Система сбрасывает возможные выбранные категории и переводит пользователя на главную страницу раздела &quot;Бонусы&quot;.&lt;/span&gt;&lt;/div&gt;" style="shape=partialRectangle;html=1;whiteSpace=wrap;connectable=0;strokeColor=inherit;overflow=hidden;fillColor=none;top=0;left=0;bottom=0;right=0;pointerEvents=1;align=left;" vertex="1" parent="kB5Wtqeiwu8v_5wdKeYX-61">
          <mxGeometry x="240" width="510" height="80" as="geometry">
            <mxRectangle width="510" height="80" as="alternateBounds" />
          </mxGeometry>
        </mxCell>
        <mxCell id="kB5Wtqeiwu8v_5wdKeYX-65" value="" style="shape=tableRow;horizontal=0;startSize=0;swimlaneHead=0;swimlaneBody=0;strokeColor=inherit;top=0;left=0;bottom=0;right=0;collapsible=0;dropTarget=0;fillColor=none;points=[[0,0.5],[1,0.5]];portConstraint=eastwest;" vertex="1" parent="kB5Wtqeiwu8v_5wdKeYX-28">
          <mxGeometry y="850" width="750" height="40" as="geometry" />
        </mxCell>
        <mxCell id="kB5Wtqeiwu8v_5wdKeYX-66" value="&lt;font style=&quot;font-size: 14px;&quot;&gt;&lt;b&gt;Исключительные сценарии&lt;/b&gt;&lt;/font&gt;" style="shape=partialRectangle;html=1;whiteSpace=wrap;connectable=0;strokeColor=inherit;overflow=hidden;fillColor=none;top=0;left=0;bottom=0;right=0;pointerEvents=1;" vertex="1" parent="kB5Wtqeiwu8v_5wdKeYX-65">
          <mxGeometry width="240" height="40" as="geometry">
            <mxRectangle width="240" height="40" as="alternateBounds" />
          </mxGeometry>
        </mxCell>
        <mxCell id="kB5Wtqeiwu8v_5wdKeYX-67" value="&lt;font style=&quot;font-size: 14px;&quot;&gt;Отсутствуют&lt;/font&gt;" style="shape=partialRectangle;html=1;whiteSpace=wrap;connectable=0;strokeColor=inherit;overflow=hidden;fillColor=none;top=0;left=0;bottom=0;right=0;pointerEvents=1;" vertex="1" parent="kB5Wtqeiwu8v_5wdKeYX-65">
          <mxGeometry x="240" width="510" height="40" as="geometry">
            <mxRectangle width="510" height="40" as="alternateBounds" />
          </mxGeometry>
        </mxCell>
        <mxCell id="kB5Wtqeiwu8v_5wdKeYX-99" value="&lt;font style=&quot;font-size: 14px;&quot;&gt;Примечание. Шаги 2-6 повторяют ту же логику, что и при выборе категорий на текущий месяц.&lt;/font&gt;" style="rounded=1;whiteSpace=wrap;html=1;fontSize=16;startSize=40;fontStyle=1;" vertex="1" parent="1">
          <mxGeometry x="880" y="650" width="220" height="100" as="geometry" />
        </mxCell>
      </root>
    </mxGraphModel>
  </diagram>
</mxfile>
